<svg xmlns="http://www.w3.org/2000/svg" width="28" height="28" viewBox="0 0 48 48"><path fill="#3F51B5" d="M27 6H45V42H27z"/><path fill="#FFC107" d="M3 27H34V42H3z"/><path fill="#283593" d="M35,25h-1v17h3V27C37,25.896,36.104,25,35,25z"/><path fill="#9FA8DA" d="M29 8H43V12H29zM29 14H43V16H29zM29 18H43V20H29z"/><path fill="#CDDC39" d="M36 33A2 2 0 1 0 36 37A2 2 0 1 0 36 33Z"/><path fill="#455A64" d="M15,24v-4h7v4h2v-4c0-1.104-0.896-2-2-2h-7c-1.104,0-2,0.896-2,2v4H15z"/><path fill="#455A64" d="M34,29v-4c0-1.104-0.896-2-2-2H5c-1.104,0-2,0.896-2,2v4H34z"/><g><path fill="#78909C" d="M25 27H29V32H25zM8 27H11.875V32H8z"/></g><path fill="#ABB21D" d="M37,33.277C36.705,33.105,36.366,33,36,33c-1.104,0-2,0.896-2,2s0.896,2,2,2c0.366,0,0.705-0.105,1-0.277V33.277z"/></svg>